<svg id="Layer_1" data-name="Layer 1" xmlns="http://www.w3.org/2000/svg" viewBox="0 0 97.49 97.49"><defs><style>.cls-1{fill:#5981b0;}.cls-2{fill:#fff;}</style></defs><title>Untitled-1</title><circle class="cls-1" cx="48.74" cy="48.74" r="48.74"/><path class="cls-2" d="M71.54,49.48v-11c-8-3.74-15.94,1.15-23.9,2.85v11C55.6,50.62,63.58,45.75,71.54,49.48Z"/><path class="cls-2" d="M45.8,39.79v-11a15.76,15.76,0,0,1-9.19-1.16v11A15.76,15.76,0,0,0,45.8,39.79Z"/><path class="cls-2" d="M71.54,36.61v-11c-8-3.74-15.94,1.15-23.9,2.85v11C55.6,37.75,63.58,32.87,71.54,36.61Z"/><path class="cls-2" d="M45.8,52.66v-11a15.76,15.76,0,0,1-9.19-1.16v11A15.68,15.68,0,0,0,45.8,52.66Z"/><path class="cls-2" d="M32.93,78.07a1.85,1.85,0,0,0,1.84-1.84V22.91a1.84,1.84,0,0,0-3.68,0V76.23A1.85,1.85,0,0,0,32.93,78.07Z"/></svg>