<svg xmlns="http://www.w3.org/2000/svg" width="49.4578" height="49.4578" viewBox="0 0 49.4578 49.4578"><title>globe</title><g id="Layer_2" data-name="Layer 2"><g id="Layer_4" data-name="Layer 4"><path d="M24.7289,0A24.7289,24.7289,0,1,0,49.4578,24.729,24.7581,24.7581,0,0,0,24.7289,0ZM40.4152,12.0652H33.633a33.9854,33.9854,0,0,0-1.88-6.2676A20.17,20.17,0,0,1,40.4152,12.0652ZM24.729,4.467c.7911,0,2.48,2.6067,3.6928,7.5982H21.0363C22.2484,7.0737,23.9372,4.467,24.729,4.467ZM5.976,32.3271a19.87,19.87,0,0,1,0-15.1965h9.0476a68.1216,68.1216,0,0,0,0,15.1965ZM9.04,37.3926h6.7846a34.0146,34.0146,0,0,0,1.88,6.27A20.2171,20.2171,0,0,1,9.04,37.3926Zm6.7846-25.3274H9.04a20.1923,20.1923,0,0,1,8.6645-6.2676A33.9853,33.9853,0,0,0,15.8248,12.0652ZM24.729,44.9907c-.7918,0-2.4806-2.6045-3.6927-7.5981h7.3855C27.21,42.3862,25.52,44.9907,24.729,44.9907Zm4.5857-12.6636H20.1431a60.36,60.36,0,0,1,0-15.1965h9.1716A60.3509,60.3509,0,0,1,29.3147,32.3271Zm2.4385,11.3355a34.0147,34.0147,0,0,0,1.88-6.27h6.7822A20.1947,20.1947,0,0,1,31.7532,43.6626Zm2.6812-11.3355a68.1635,68.1635,0,0,0,0-15.1965h9.0474a19.87,19.87,0,0,1,0,15.1965Z" fill="#fff"/></g></g></svg>