<?xml version="1.0" encoding="utf-8"?>
<!-- Generator: Adobe Illustrator 23.0.6, SVG Export Plug-In . SVG Version: 6.00 Build 0)  -->
<svg version="1.1" id="Layer_1" xmlns="http://www.w3.org/2000/svg" xmlns:xlink="http://www.w3.org/1999/xlink" x="0px" y="0px"
	 viewBox="0 0 158.7 65.2" style="enable-background:new 0 0 158.7 65.2;" xml:space="preserve">
<style type="text/css">
	.st0{fill:#FFFFFF;}
</style>
<title>Untitled-1</title>
<g>
	<path class="st0" d="M28.5,29.9V17.1L23,25.5h-0.1l-5.5-8.3v12.7h-4.3V10.3h4.6l5.2,8.3l5.1-8.3h4.7v19.6H28.5z"/>
	<path class="st0" d="M37.5,29.9V10.3h14.8v3.8H41.7v4H51V22h-9.3v4.2h10.6v3.8H37.5z"/>
	<path class="st0" d="M70.8,29.9L69,25.5h-8.3l-1.8,4.4h-4.4l8.4-19.7h4l8.4,19.7H70.8z M64.9,15.4l-2.6,6.4h5.2L64.9,15.4z"/>
	<path class="st0" d="M92,26.7c-0.3,0.7-0.8,1.4-1.5,1.9c-0.7,0.5-1.4,0.9-2.3,1.2c-0.9,0.3-1.9,0.4-2.9,0.4c-1.5,0-3-0.3-4.4-0.8
		c-1.5-0.5-2.8-1.3-4-2.4l2.6-3c0.8,0.7,1.8,1.3,2.8,1.7c1,0.4,2,0.7,3.1,0.6c0.7,0,1.5-0.1,2.1-0.5c0.5-0.3,0.8-0.8,0.7-1.4v0
		c0-0.3,0-0.5-0.2-0.7c-0.1-0.3-0.3-0.5-0.6-0.6c-0.4-0.2-0.8-0.4-1.2-0.6c-0.7-0.2-1.3-0.4-2-0.6c-0.9-0.2-1.8-0.5-2.7-0.8
		c-0.7-0.3-1.4-0.6-2-1.1c-0.6-0.4-1-1-1.3-1.6c-0.3-0.8-0.5-1.6-0.5-2.4v-0.1c0-0.8,0.2-1.7,0.5-2.4c0.3-0.7,0.8-1.4,1.4-1.9
		c0.6-0.5,1.4-0.9,2.2-1.2c0.9-0.3,1.8-0.4,2.8-0.4c1.4,0,2.7,0.2,4,0.6c1.2,0.4,2.3,1.1,3.3,1.8l-2.3,3.2c-0.8-0.6-1.7-1-2.6-1.4
		c-0.8-0.3-1.7-0.5-2.5-0.5c-0.7-0.1-1.3,0.1-1.9,0.5c-0.4,0.3-0.7,0.7-0.7,1.2v0.1c0,0.3,0.1,0.6,0.2,0.8c0.2,0.3,0.4,0.5,0.7,0.6
		c0.4,0.2,0.8,0.4,1.3,0.5c0.6,0.2,1.2,0.4,2.1,0.6c0.9,0.2,1.8,0.5,2.7,0.9c0.7,0.3,1.4,0.7,2,1.2c0.5,0.4,0.9,1,1.2,1.6
		c0.3,0.7,0.4,1.5,0.4,2.3l0,0C92.5,25,92.4,25.9,92,26.7z"/>
	<path class="st0" d="M96.3,29.9V10.3h4.3V26h9.8v3.9H96.3z"/>
	<path class="st0" d="M113.6,29.9V10.3h14.8v3.8h-10.5v4h9.2V22h-9.2v4.2h10.6v3.8H113.6z"/>
	<path class="st0" d="M146,26.7c-0.3,0.7-0.8,1.4-1.5,1.9c-0.7,0.5-1.4,0.9-2.3,1.2c-0.9,0.3-1.9,0.4-2.9,0.4c-1.5,0-3-0.3-4.4-0.8
		c-1.5-0.5-2.8-1.3-4-2.4l2.5-3c0.8,0.7,1.8,1.3,2.8,1.7c1,0.4,2,0.7,3.1,0.6c0.7,0,1.4-0.1,2.1-0.5c0.5-0.3,0.8-0.8,0.7-1.4v0
		c0-0.3,0-0.5-0.1-0.7c-0.1-0.3-0.3-0.5-0.6-0.6c-0.4-0.2-0.8-0.4-1.2-0.6c-0.5-0.2-1.2-0.4-2-0.6c-0.9-0.2-1.8-0.5-2.7-0.8
		c-0.7-0.3-1.4-0.6-2.1-1.1c-0.6-0.4-1-1-1.3-1.6c-0.3-0.8-0.5-1.6-0.5-2.4v-0.1c0-0.8,0.2-1.7,0.5-2.4c0.3-0.7,0.8-1.4,1.4-1.9
		c0.6-0.5,1.4-0.9,2.2-1.2c0.9-0.3,1.8-0.4,2.8-0.4c1.4,0,2.7,0.2,4,0.6c1.2,0.4,2.3,1.1,3.3,1.8l-2.2,3.2c-0.8-0.6-1.7-1-2.6-1.4
		c-0.8-0.3-1.7-0.5-2.5-0.5c-0.7-0.1-1.3,0.1-1.9,0.5c-0.4,0.3-0.6,0.7-0.6,1.2v0.1c0,0.3,0.1,0.6,0.2,0.8c0.2,0.3,0.4,0.5,0.7,0.6
		c0.4,0.2,0.9,0.4,1.3,0.5c0.6,0.2,1.2,0.4,2.1,0.6c0.9,0.2,1.8,0.5,2.6,0.9c0.7,0.3,1.4,0.7,2,1.2c0.5,0.4,0.9,1,1.2,1.6
		c0.3,0.7,0.4,1.5,0.4,2.2v0C146.6,25,146.4,25.9,146,26.7z"/>
	<path class="st0" d="M24.5,40.4v14.5h-4V40.4H15v-3.7h15v3.7H24.5z"/>
	<path class="st0" d="M44.2,54.9l-3.9-5.8h-3.1v5.8h-4V36.7h8.3c1.8-0.1,3.6,0.5,5.1,1.6c1.2,1.1,1.9,2.8,1.8,4.4l0,0
		c0.1,1.3-0.3,2.6-1.1,3.6c-0.7,0.9-1.7,1.6-2.8,2l4.5,6.5L44.2,54.9z M44.2,42.9c0.1-0.8-0.2-1.5-0.8-2c-0.7-0.5-1.5-0.7-2.3-0.7
		h-4v5.2h4.1c0.8,0.1,1.6-0.2,2.3-0.7C44,44.3,44.2,43.6,44.2,42.9L44.2,42.9z"/>
	<path class="st0" d="M65.4,54.9l-1.7-4.1h-7.7l-1.7,4.1h-4.1l7.8-18.3h3.7l7.8,18.3H65.4z M59.9,41.4l-2.4,5.9h4.8L59.9,41.4z"/>
	<path class="st0" d="M87,53.3c-0.5,0.4-1.1,0.7-1.7,1c-0.6,0.3-1.3,0.5-2,0.7c-0.8,0.2-1.6,0.2-2.4,0.2c-1.3,0-2.5-0.2-3.7-0.7
		c-1.1-0.5-2.1-1.1-3-2c-0.9-0.9-1.5-1.9-2-3c-0.5-1.2-0.7-2.4-0.7-3.7l0,0c0-2.5,0.9-4.9,2.7-6.6c0.9-0.9,1.9-1.5,3-2
		c1.2-0.5,2.5-0.8,3.8-0.7c0.8,0,1.6,0.1,2.3,0.2c0.7,0.1,1.3,0.3,1.9,0.6c0.6,0.2,1.2,0.5,1.7,0.9c0.5,0.3,0.9,0.7,1.4,1.2
		l-2.6,2.8c-0.7-0.6-1.4-1.1-2.2-1.5c-0.8-0.4-1.6-0.5-2.5-0.5c-1.4,0-2.8,0.6-3.8,1.7c-0.5,0.5-0.8,1.1-1.1,1.8
		c-0.3,0.7-0.4,1.4-0.4,2.2v0c0,0.8,0.1,1.5,0.4,2.2c0.2,0.7,0.6,1.3,1.1,1.8c1,1.1,2.3,1.7,3.8,1.7c0.9,0,1.8-0.2,2.6-0.6
		c0.8-0.4,1.5-0.9,2.2-1.6l2.6,2.6C88,52.5,87.5,52.9,87,53.3z"/>
	<path class="st0" d="M103.4,54.9l-5.7-7.8l-2.1,2.2v5.6h-4V36.7h4v8l7.4-8h4.8l-7.4,7.7l7.8,10.5H103.4z"/>
	<path class="st0" d="M110.6,54.9V36.7h13.7v3.6h-9.8V44h8.6v3.6h-8.6v3.8h9.9v3.6H110.6z"/>
	<path class="st0" d="M139.1,54.9l-3.9-5.8H132v5.8h-4V36.7h8.3c1.8-0.1,3.6,0.5,5.1,1.6c1.2,1.1,1.9,2.7,1.8,4.4l0,0
		c0.1,1.3-0.3,2.6-1.1,3.6c-0.7,0.9-1.7,1.6-2.8,2l4.4,6.5L139.1,54.9z M139.2,42.9c0.1-0.8-0.2-1.5-0.8-2c-0.7-0.5-1.5-0.7-2.3-0.7
		h-4v5.2h4.1c0.8,0.1,1.6-0.2,2.3-0.7C138.9,44.3,139.2,43.6,139.2,42.9L139.2,42.9z"/>
</g>
</svg>
